<svg width="675" height="380" viewBox="0 0 675 380" fill="none" xmlns="http://www.w3.org/2000/svg">
<rect x="0.782821" y="0.782821" width="673.434" height="378.132" rx="30.53" fill="white"/>
<path d="M236.752 197.496V184.219H238.725V197.496H236.752ZM230.928 191.797V189.949H244.549V191.797H230.928ZM269.91 201.817V198.185L269.816 197.59V191.515C269.816 190.116 269.419 189.041 268.626 188.29C267.853 187.538 266.695 187.162 265.15 187.162C264.085 187.162 263.073 187.34 262.113 187.695C261.152 188.05 260.338 188.519 259.67 189.104L258.668 187.444C259.503 186.735 260.505 186.192 261.674 185.816C262.843 185.419 264.075 185.221 265.369 185.221C267.498 185.221 269.137 185.753 270.285 186.818C271.454 187.862 272.039 189.459 272.039 191.609V201.817H269.91ZM264.242 201.973C263.01 201.973 261.935 201.775 261.017 201.379C260.119 200.961 259.43 200.397 258.95 199.688C258.47 198.957 258.23 198.122 258.23 197.183C258.23 196.327 258.428 195.554 258.825 194.865C259.242 194.156 259.91 193.592 260.829 193.175C261.768 192.736 263.021 192.517 264.586 192.517H270.254V194.177H264.649C263.062 194.177 261.956 194.458 261.33 195.022C260.724 195.586 260.422 196.285 260.422 197.12C260.422 198.059 260.787 198.811 261.518 199.374C262.248 199.938 263.271 200.22 264.586 200.22C265.839 200.22 266.914 199.938 267.812 199.374C268.73 198.79 269.398 197.955 269.816 196.869L270.317 198.404C269.899 199.489 269.168 200.356 268.125 201.003C267.102 201.65 265.808 201.973 264.242 201.973ZM285.404 201.973C283.839 201.973 282.43 201.619 281.177 200.909C279.946 200.199 278.975 199.218 278.265 197.965C277.555 196.692 277.201 195.231 277.201 193.582C277.201 191.912 277.555 190.45 278.265 189.198C278.975 187.945 279.946 186.975 281.177 186.286C282.43 185.576 283.839 185.221 285.404 185.221C286.845 185.221 288.129 185.545 289.256 186.192C290.404 186.839 291.312 187.789 291.98 189.041C292.669 190.273 293.013 191.786 293.013 193.582C293.013 195.356 292.679 196.869 292.011 198.122C291.343 199.374 290.435 200.335 289.287 201.003C288.16 201.65 286.866 201.973 285.404 201.973ZM285.561 200.001C286.73 200.001 287.774 199.74 288.692 199.218C289.632 198.675 290.362 197.924 290.884 196.963C291.427 195.982 291.698 194.855 291.698 193.582C291.698 192.287 291.427 191.16 290.884 190.2C290.362 189.24 289.632 188.499 288.692 187.977C287.774 187.434 286.73 187.162 285.561 187.162C284.413 187.162 283.38 187.434 282.461 187.977C281.543 188.499 280.812 189.24 280.269 190.2C279.726 191.16 279.455 192.287 279.455 193.582C279.455 194.855 279.726 195.982 280.269 196.963C280.812 197.924 281.543 198.675 282.461 199.218C283.38 199.74 284.413 200.001 285.561 200.001ZM291.761 201.817V196.869L291.98 193.55L291.667 190.231V178.583H293.89V201.817H291.761ZM307.409 201.973C305.843 201.973 304.434 201.619 303.182 200.909C301.95 200.199 300.98 199.218 300.27 197.965C299.56 196.692 299.205 195.231 299.205 193.582C299.205 191.912 299.56 190.45 300.27 189.198C300.98 187.945 301.95 186.975 303.182 186.286C304.434 185.576 305.843 185.221 307.409 185.221C308.849 185.221 310.133 185.545 311.261 186.192C312.409 186.839 313.317 187.789 313.985 189.041C314.674 190.273 315.018 191.786 315.018 193.582C315.018 195.356 314.684 196.869 314.016 198.122C313.348 199.374 312.44 200.335 311.292 201.003C310.165 201.65 308.87 201.973 307.409 201.973ZM307.566 200.001C308.735 200.001 309.778 199.74 310.697 199.218C311.636 198.675 312.367 197.924 312.889 196.963C313.432 195.982 313.703 194.855 313.703 193.582C313.703 192.287 313.432 191.16 312.889 190.2C312.367 189.24 311.636 188.499 310.697 187.977C309.778 187.434 308.735 187.162 307.566 187.162C306.417 187.162 305.384 187.434 304.466 187.977C303.547 188.499 302.817 189.24 302.274 190.2C301.731 191.16 301.46 192.287 301.46 193.582C301.46 194.855 301.731 195.982 302.274 196.963C302.817 197.924 303.547 198.675 304.466 199.218C305.384 199.74 306.417 200.001 307.566 200.001ZM313.766 201.817V196.869L313.985 193.55L313.672 190.231V178.583H315.895V201.817H313.766ZM331.847 201.817V185.378H334.07V201.817H331.847ZM332.975 181.745C332.515 181.745 332.129 181.589 331.816 181.276C331.503 180.963 331.346 180.587 331.346 180.148C331.346 179.71 331.503 179.345 331.816 179.052C332.129 178.739 332.515 178.583 332.975 178.583C333.434 178.583 333.82 178.729 334.133 179.021C334.446 179.313 334.603 179.679 334.603 180.117C334.603 180.576 334.446 180.963 334.133 181.276C333.841 181.589 333.455 181.745 332.975 181.745ZM361.581 185.221C362.917 185.221 364.075 185.482 365.056 186.004C366.058 186.505 366.831 187.277 367.373 188.321C367.937 189.365 368.219 190.68 368.219 192.266V201.817H365.996V192.486C365.996 190.753 365.578 189.448 364.743 188.572C363.929 187.674 362.77 187.225 361.267 187.225C360.14 187.225 359.159 187.465 358.324 187.945C357.51 188.405 356.873 189.083 356.414 189.981C355.976 190.857 355.756 191.922 355.756 193.175V201.817H353.533V192.486C353.533 190.753 353.116 189.448 352.281 188.572C351.446 187.674 350.277 187.225 348.774 187.225C347.667 187.225 346.696 187.465 345.861 187.945C345.026 188.405 344.379 189.083 343.92 189.981C343.482 190.857 343.263 191.922 343.263 193.175V201.817H341.039V185.378H343.169V189.824L342.824 189.041C343.325 187.851 344.129 186.922 345.235 186.254C346.362 185.566 347.688 185.221 349.212 185.221C350.819 185.221 352.187 185.628 353.314 186.442C354.441 187.236 355.172 188.436 355.506 190.043L354.629 189.699C355.109 188.363 355.955 187.288 357.165 186.474C358.397 185.639 359.869 185.221 361.581 185.221ZM385.333 201.817V198.185L385.239 197.59V191.515C385.239 190.116 384.842 189.041 384.049 188.29C383.277 187.538 382.118 187.162 380.573 187.162C379.509 187.162 378.496 187.34 377.536 187.695C376.576 188.05 375.761 188.519 375.093 189.104L374.091 187.444C374.926 186.735 375.928 186.192 377.097 185.816C378.266 185.419 379.498 185.221 380.792 185.221C382.922 185.221 384.56 185.753 385.709 186.818C386.878 187.862 387.462 189.459 387.462 191.609V201.817H385.333ZM379.665 201.973C378.433 201.973 377.358 201.775 376.44 201.379C375.542 200.961 374.853 200.397 374.373 199.688C373.893 198.957 373.653 198.122 373.653 197.183C373.653 196.327 373.851 195.554 374.248 194.865C374.666 194.156 375.334 193.592 376.252 193.175C377.191 192.736 378.444 192.517 380.01 192.517H385.677V194.177H380.072C378.486 194.177 377.379 194.458 376.753 195.022C376.148 195.586 375.845 196.285 375.845 197.12C375.845 198.059 376.21 198.811 376.941 199.374C377.672 199.938 378.694 200.22 380.01 200.22C381.262 200.22 382.337 199.938 383.235 199.374C384.153 198.79 384.821 197.955 385.239 196.869L385.74 198.404C385.322 199.489 384.592 200.356 383.548 201.003C382.525 201.65 381.231 201.973 379.665 201.973ZM401.297 208.048C399.794 208.048 398.354 207.829 396.976 207.391C395.598 206.952 394.482 206.326 393.626 205.512L394.753 203.821C395.525 204.51 396.475 205.053 397.602 205.449C398.751 205.867 399.961 206.075 401.235 206.075C403.322 206.075 404.857 205.585 405.838 204.604C406.819 203.643 407.309 202.14 407.309 200.095V195.993L407.623 193.175L407.403 190.356V185.378H409.533V199.813C409.533 202.652 408.833 204.729 407.435 206.044C406.057 207.38 404.011 208.048 401.297 208.048ZM400.89 201.191C399.325 201.191 397.916 200.857 396.663 200.189C395.411 199.5 394.419 198.55 393.688 197.339C392.979 196.128 392.624 194.74 392.624 193.175C392.624 191.609 392.979 190.231 393.688 189.041C394.419 187.83 395.411 186.891 396.663 186.223C397.916 185.555 399.325 185.221 400.89 185.221C402.352 185.221 403.667 185.524 404.836 186.129C406.005 186.735 406.934 187.632 407.623 188.822C408.311 190.012 408.656 191.463 408.656 193.175C408.656 194.886 408.311 196.337 407.623 197.527C406.934 198.717 406.005 199.625 404.836 200.251C403.667 200.878 402.352 201.191 400.89 201.191ZM401.11 199.218C402.32 199.218 403.395 198.967 404.335 198.466C405.274 197.945 406.015 197.235 406.558 196.337C407.101 195.419 407.372 194.364 407.372 193.175C407.372 191.985 407.101 190.941 406.558 190.043C406.015 189.146 405.274 188.446 404.335 187.945C403.395 187.423 402.32 187.162 401.11 187.162C399.92 187.162 398.845 187.423 397.884 187.945C396.945 188.446 396.204 189.146 395.661 190.043C395.139 190.941 394.878 191.985 394.878 193.175C394.878 194.364 395.139 195.419 395.661 196.337C396.204 197.235 396.945 197.945 397.884 198.466C398.845 198.967 399.92 199.218 401.11 199.218ZM423.485 201.973C421.773 201.973 420.27 201.619 418.976 200.909C417.681 200.178 416.669 199.187 415.938 197.934C415.208 196.661 414.842 195.21 414.842 193.582C414.842 191.953 415.187 190.513 415.876 189.26C416.585 188.008 417.546 187.027 418.757 186.317C419.988 185.586 421.366 185.221 422.89 185.221C424.435 185.221 425.802 185.576 426.992 186.286C428.203 186.975 429.152 187.956 429.841 189.229C430.53 190.482 430.875 191.932 430.875 193.582C430.875 193.686 430.864 193.801 430.843 193.926C430.843 194.03 430.843 194.145 430.843 194.271H416.533V192.611H429.653L428.777 193.268C428.777 192.079 428.516 191.024 427.994 190.106C427.493 189.167 426.804 188.436 425.927 187.914C425.05 187.392 424.038 187.131 422.89 187.131C421.763 187.131 420.75 187.392 419.852 187.914C418.955 188.436 418.255 189.167 417.754 190.106C417.253 191.045 417.003 192.12 417.003 193.331V193.676C417.003 194.928 417.274 196.034 417.817 196.995C418.381 197.934 419.153 198.675 420.134 199.218C421.136 199.74 422.274 200.001 423.547 200.001C424.549 200.001 425.478 199.823 426.334 199.468C427.211 199.114 427.962 198.571 428.589 197.84L429.841 199.281C429.111 200.157 428.192 200.825 427.086 201.285C426 201.744 424.8 201.973 423.485 201.973ZM440.598 201.973C439.241 201.973 437.957 201.786 436.746 201.41C435.535 201.013 434.586 200.523 433.897 199.938L434.899 198.185C435.567 198.686 436.423 199.124 437.466 199.5C438.51 199.855 439.606 200.032 440.754 200.032C442.32 200.032 443.447 199.792 444.136 199.312C444.825 198.811 445.169 198.153 445.169 197.339C445.169 196.734 444.971 196.264 444.574 195.93C444.199 195.575 443.698 195.314 443.071 195.147C442.445 194.959 441.746 194.803 440.973 194.678C440.201 194.552 439.429 194.406 438.656 194.239C437.905 194.072 437.216 193.832 436.59 193.519C435.963 193.185 435.452 192.736 435.055 192.173C434.68 191.609 434.492 190.857 434.492 189.918C434.492 189.02 434.742 188.217 435.243 187.507C435.744 186.797 436.475 186.244 437.435 185.847C438.416 185.43 439.606 185.221 441.005 185.221C442.069 185.221 443.134 185.367 444.199 185.659C445.263 185.931 446.14 186.296 446.829 186.755L445.858 188.54C445.128 188.039 444.345 187.684 443.51 187.476C442.675 187.246 441.84 187.131 441.005 187.131C439.523 187.131 438.427 187.392 437.717 187.914C437.028 188.415 436.684 189.062 436.684 189.855C436.684 190.482 436.871 190.972 437.247 191.327C437.644 191.682 438.155 191.964 438.782 192.173C439.429 192.36 440.128 192.517 440.88 192.642C441.652 192.767 442.414 192.924 443.165 193.112C443.938 193.279 444.637 193.519 445.263 193.832C445.91 194.124 446.422 194.552 446.798 195.116C447.194 195.659 447.393 196.379 447.393 197.277C447.393 198.237 447.121 199.072 446.578 199.782C446.057 200.47 445.284 201.013 444.261 201.41C443.259 201.786 442.038 201.973 440.598 201.973Z" fill="black"/>
<rect x="0.782821" y="0.782821" width="673.434" height="378.132" rx="30.53" stroke="black" stroke-width="1.56564" stroke-dasharray="7.83 7.83"/>
</svg>
