<svg width="58" height="50" viewBox="0 0 58 50" fill="none" xmlns="http://www.w3.org/2000/svg">
<g clip-path="url(#clip0_347_15495)">
<path d="M37.75 15.4498C38.5411 15.4498 39.3145 15.2152 39.9723 14.7757C40.6301 14.3362 41.1428 13.7114 41.4455 12.9805C41.7483 12.2496 41.8275 11.4454 41.6731 10.6694C41.5188 9.89352 41.1378 9.18079 40.5784 8.62138C40.019 8.06197 39.3063 7.681 38.5304 7.52666C37.7544 7.37232 36.9502 7.45154 36.2193 7.75429C35.4884 8.05704 34.8636 8.56973 34.4241 9.22752C33.9846 9.88532 33.75 10.6587 33.75 11.4498C33.75 12.5107 34.1714 13.5281 34.9216 14.2782C35.6717 15.0284 36.6891 15.4498 37.75 15.4498ZM37.75 9.44981C38.1456 9.44981 38.5322 9.5671 38.8611 9.78687C39.19 10.0066 39.4464 10.319 39.5978 10.6844C39.7491 11.0499 39.7887 11.452 39.7116 11.84C39.6344 12.2279 39.4439 12.5843 39.1642 12.864C38.8845 13.1437 38.5281 13.3342 38.1402 13.4114C37.7522 13.4885 37.3501 13.4489 36.9846 13.2976C36.6192 13.1462 36.3068 12.8898 36.0871 12.5609C35.8673 12.232 35.75 11.8454 35.75 11.4498C35.75 10.9194 35.9607 10.4107 36.3358 10.0356C36.7109 9.66052 37.2196 9.44981 37.75 9.44981ZM51.75 31.0318V1.0498C51.75 0.784588 51.6446 0.530234 51.4571 0.342698C51.2696 0.155161 51.0152 0.0498047 50.75 0.0498047H1.75C1.48478 0.0498047 1.23043 0.155161 1.04289 0.342698C0.855357 0.530234 0.75 0.784588 0.75 1.0498V42.8498C0.75 43.115 0.855357 43.3694 1.04289 43.5569C1.23043 43.7444 1.48478 43.8498 1.75 43.8498H38.042C38.6677 45.3342 39.6428 46.6455 40.8842 47.672C42.1256 48.6985 43.5966 49.41 45.1721 49.7458C46.7476 50.0816 48.3809 50.0318 49.933 49.6007C51.4851 49.1696 52.9101 48.3699 54.0868 47.2697C55.2634 46.1695 56.1568 44.8013 56.691 43.2816C57.2251 41.7618 57.3843 40.1356 57.1548 38.5411C56.9254 36.9467 56.3141 35.4312 55.3731 34.1238C54.4321 32.8164 53.1891 31.7556 51.75 31.0318ZM49.75 2.0498V30.2788C48.934 30.0637 48.0939 29.9531 47.25 29.9498C47.101 29.9498 46.956 29.9658 46.809 29.9728L38.492 20.7788C38.3982 20.6751 38.2837 20.5923 38.1559 20.5356C38.0281 20.479 37.8898 20.4497 37.75 20.4498C37.6093 20.4503 37.4704 20.4805 37.3422 20.5384C37.2139 20.5963 37.0994 20.6806 37.006 20.7858L29.764 28.9298L18.509 15.7998C18.4153 15.6906 18.2992 15.6029 18.1686 15.5427C18.038 15.4824 17.8959 15.4511 17.752 15.4508C17.6083 15.4509 17.4663 15.4819 17.3357 15.5418C17.205 15.6016 17.0888 15.689 16.995 15.7978L2.75 32.2918V2.0498H49.75ZM2.75 41.8498V35.3498L17.75 17.9808L28.991 31.0998C29.0839 31.2081 29.1989 31.2953 29.3282 31.3555C29.4576 31.4157 29.5983 31.4475 29.741 31.4488C29.884 31.4516 30.0258 31.423 30.1566 31.3652C30.2874 31.3073 30.4039 31.2215 30.498 31.1138L37.756 22.9468L44.456 30.3538C42.0588 31.0443 40.0077 32.6085 38.7076 34.7377C37.4076 36.8668 36.9531 39.406 37.434 41.8538L2.75 41.8498ZM47.25 47.9498C45.571 47.9472 43.9353 47.4171 42.574 46.4343C41.2128 45.4514 40.1948 44.0657 39.664 42.4728L39.657 42.4538C39.177 40.9957 39.1266 39.4303 39.5119 37.9444C39.8972 36.4585 40.7019 35.1147 41.8299 34.0736C42.9579 33.0324 44.3616 32.3378 45.8736 32.0726C47.3856 31.8074 48.942 31.9827 50.357 32.5778H50.369C52.0716 33.2954 53.4733 34.5802 54.3361 36.214C55.1989 37.8478 55.4696 39.7299 55.1022 41.5406C54.7348 43.3513 53.752 44.9791 52.3206 46.1474C50.8893 47.3157 49.0976 47.9526 47.25 47.9498ZM52.87 39.9498C52.87 40.215 52.7646 40.4694 52.5771 40.6569C52.3896 40.8445 52.1352 40.9498 51.87 40.9498H48.25V44.5688C48.25 44.834 48.1446 45.0884 47.9571 45.2759C47.7696 45.4634 47.5152 45.5688 47.25 45.5688C46.9848 45.5688 46.7304 45.4634 46.5429 45.2759C46.3554 45.0884 46.25 44.834 46.25 44.5688V40.9498H42.63C42.3648 40.9498 42.1104 40.8445 41.9229 40.6569C41.7354 40.4694 41.63 40.215 41.63 39.9498C41.63 39.6846 41.7354 39.4302 41.9229 39.2427C42.1104 39.0552 42.3648 38.9498 42.63 38.9498H46.25V35.3308C46.25 35.0656 46.3554 34.8112 46.5429 34.6237C46.7304 34.4362 46.9848 34.3308 47.25 34.3308C47.5152 34.3308 47.7696 34.4362 47.9571 34.6237C48.1446 34.8112 48.25 35.0656 48.25 35.3308V38.9498H51.87C52.1352 38.9498 52.3896 39.0552 52.5771 39.2427C52.7646 39.4302 52.87 39.6846 52.87 39.9498Z" fill="black"/>
</g>
<defs>
<clipPath id="clip0_347_15495">
<rect width="58" height="50" fill="white"/>
</clipPath>
</defs>
</svg>
