<svg width="45" height="45" viewBox="0 0 45 45" fill="none" xmlns="http://www.w3.org/2000/svg">
<circle cx="22.5" cy="22.5" r="22.5" fill="#673BD9"/>
<path d="M18.3295 28.75C17.1836 28.75 16.2565 29.6875 16.2565 30.8333C16.2565 31.9791 17.1836 32.9166 18.3295 32.9166C19.4753 32.9166 20.4128 31.9791 20.4128 30.8333C20.4128 29.6875 19.4753 28.75 18.3295 28.75ZM28.7461 28.75C27.6003 28.75 26.6732 29.6875 26.6732 30.8333C26.6732 31.9791 27.6003 32.9166 28.7461 32.9166C29.892 32.9166 30.8295 31.9791 30.8295 30.8333C30.8295 29.6875 29.892 28.75 28.7461 28.75ZM27.2357 23.5416C28.017 23.5416 28.7045 23.1146 29.0586 22.4687L32.7878 15.7083C33.1732 15.0208 32.6732 14.1666 31.8815 14.1666H16.4649L15.4857 12.0833H12.0795V14.1666H14.1628L17.9128 22.0729L16.5065 24.6146C15.7461 26.0104 16.7461 27.7083 18.3295 27.7083H30.8295V25.625H18.3295L19.4753 23.5416H27.2357ZM17.4545 16.25H30.1107L27.2357 21.4583H19.9232L17.4545 16.25Z" fill="white"/>
</svg>
