<svg width="40" height="40" viewBox="0 0 40 40" fill="none" xmlns="http://www.w3.org/2000/svg">
<g clip-path="url(#clip0_119_44164)">
<path d="M1.02411 0.673386H6.46732V14.1131H18.3779V19.1916H1.02411V0.673386Z" fill="white"/>
<path d="M25.8719 9.58174C25.8719 10.4141 26.0403 11.1764 26.3769 11.8684C26.7137 12.5512 27.186 13.0983 27.7939 13.5098C28.4018 13.912 29.1126 14.1131 29.9263 14.1131C30.7493 14.1131 31.4648 13.912 32.0727 13.5098C32.6807 13.0983 33.1529 12.5512 33.4896 11.8684C33.8263 11.1764 33.9947 10.4141 33.9947 9.58174C33.9947 8.74938 33.8263 7.99178 33.4896 7.30909C33.1529 6.62633 32.6807 6.0792 32.0727 5.66768C31.4648 5.25617 30.7493 5.05041 29.9263 5.05041C29.1126 5.05041 28.4018 5.25617 27.7939 5.66768C27.186 6.0792 26.7137 6.62633 26.3769 7.30909C26.0403 7.99178 25.8719 8.74938 25.8719 9.58174ZM20.2042 9.58174C20.2042 8.23498 20.4474 6.98172 20.9337 5.822C21.4295 4.65292 22.1169 3.63349 22.996 2.76369C23.8751 1.89391 24.9039 1.21584 26.0824 0.729505C27.2702 0.243168 28.5514 0 29.9263 0C31.3292 0 32.6199 0.243168 33.7983 0.729505C34.986 1.21584 36.0148 1.89391 36.8847 2.76369C37.7638 3.63349 38.4418 4.65292 38.9188 5.822C39.4052 6.98172 39.6483 8.23498 39.6483 9.58174C39.6483 10.9379 39.4145 12.2005 38.9469 13.3695C38.4793 14.5293 37.8105 15.5487 36.9407 16.4279C36.0803 17.2977 35.0562 17.9757 33.8684 18.462C32.6807 18.9484 31.3666 19.1916 29.9263 19.1916C28.4486 19.1916 27.1111 18.9484 25.914 18.462C24.7263 17.9757 23.7068 17.2977 22.8557 16.4279C22.0047 15.5487 21.35 14.5293 20.8916 13.3695C20.4334 12.2005 20.2042 10.9379 20.2042 9.58174Z" fill="white"/>
<path d="M9.66589 28.6961H19.1635V29.9727C19.1635 31.3288 18.9437 32.5914 18.5041 33.7605C18.0646 34.9202 17.4286 35.9396 16.5962 36.8188C15.7732 37.6886 14.7818 38.3666 13.622 38.8529C12.4623 39.3393 11.1623 39.5825 9.72204 39.5825C8.23498 39.5825 6.89287 39.3393 5.69574 38.8529C4.50796 38.3666 3.48852 37.6886 2.63743 36.8188C1.78635 35.9396 1.13167 34.9202 0.673388 33.7605C0.224463 32.5914 0 31.3288 0 29.9727C0 28.6259 0.224463 27.3727 0.673388 26.213C1.13167 25.0439 1.78635 24.0244 2.63743 23.1546C3.48852 22.2848 4.50796 21.6068 5.69574 21.1204C6.89287 20.6341 8.23498 20.3909 9.72204 20.3909C11.0688 20.3909 12.2332 20.5359 13.2152 20.8258C14.1972 21.1157 15.0249 21.4946 15.6983 21.9622C16.3717 22.4204 16.9236 22.9161 17.3537 23.4492C17.784 23.9729 18.1254 24.4687 18.3779 24.9363L13.1591 27.2932C12.8972 26.8442 12.5091 26.4234 11.9947 26.0306C11.4897 25.6378 10.7321 25.4413 9.72204 25.4413C9.11411 25.4413 8.5576 25.5629 8.05258 25.8061C7.55687 26.0399 7.13136 26.3673 6.77596 26.7881C6.42057 27.1996 6.14466 27.6813 5.94825 28.2331C5.76121 28.7756 5.66768 29.3554 5.66768 29.9727C5.66768 30.5993 5.76121 31.1885 5.94825 31.7403C6.14466 32.2828 6.42057 32.7644 6.77596 33.1853C7.13136 33.5968 7.55687 33.9195 8.05258 34.1533C8.5576 34.3871 9.11411 34.504 9.72204 34.504C10.2084 34.504 10.6433 34.4713 11.0267 34.4058C11.4196 34.331 11.7516 34.2234 12.0228 34.0831C12.3033 33.9335 12.5231 33.7511 12.6821 33.536C12.8505 33.3116 12.958 33.0543 13.0048 32.7644H9.66589V28.6961Z" fill="white"/>
<path d="M25.8719 29.9727C25.8719 30.8051 26.0403 31.5674 26.3769 32.2594C26.7137 32.9422 27.186 33.4893 27.7939 33.9008C28.4018 34.303 29.1126 34.5041 29.9263 34.5041C30.7493 34.5041 31.4648 34.303 32.0727 33.9008C32.6807 33.4893 33.1529 32.9422 33.4896 32.2594C33.8263 31.5674 33.9947 30.8051 33.9947 29.9727C33.9947 29.1403 33.8263 28.3828 33.4896 27.7C33.1529 27.0172 32.6807 26.4701 32.0727 26.0586C31.4648 25.6471 30.7493 25.4414 29.9263 25.4414C29.1126 25.4414 28.4018 25.6471 27.7939 26.0586C27.186 26.4701 26.7137 27.0172 26.3769 27.7C26.0403 28.3828 25.8719 29.1403 25.8719 29.9727ZM20.2042 29.9727C20.2042 28.6259 20.4474 27.3727 20.9337 26.213C21.4295 25.0439 22.1169 24.0244 22.996 23.1546C23.8751 22.2849 24.9039 21.6068 26.0824 21.1204C27.2702 20.6341 28.5514 20.3909 29.9263 20.3909C31.3292 20.3909 32.6199 20.6341 33.7983 21.1204C34.986 21.6068 36.0148 22.2849 36.8847 23.1546C37.7638 24.0244 38.4418 25.0439 38.9188 26.213C39.4052 27.3727 39.6483 28.6259 39.6483 29.9727C39.6483 31.3288 39.4145 32.5914 38.9469 33.7605C38.4793 34.9202 37.8105 35.9396 36.9407 36.8188C36.0803 37.6886 35.0562 38.3667 33.8684 38.853C32.6807 39.3394 31.3666 39.5825 29.9263 39.5825C28.4486 39.5825 27.1111 39.3394 25.914 38.853C24.7263 38.3667 23.7068 37.6886 22.8557 36.8188C22.0047 35.9396 21.35 34.9202 20.8916 33.7605C20.4334 32.5914 20.2042 31.3288 20.2042 29.9727Z" fill="white"/>
</g>
<defs>
<clipPath id="clip0_119_44164">
<rect width="40" height="40" fill="white"/>
</clipPath>
</defs>
</svg>
